#!OML:ASF E:\inclinewalkrobotboard\Project 1\Capture day 1\Session 1\subject1.ASF
:FULLY-SPECIFIED
:DEGREES
416
root 8.07886 23.1764 -13.3395 -169.78 1.71137 178.968
lowerback -7.77898 1.02135 -6.53811
upperback 1.60257 1.93861 1.36837
thorax 5.79846 0.705067 5.36736
lowerneck 1.83881 0.0683474 -6.78659
upperneck 11.2379 -1.59299 10.5584
head 3.12039 -1.009 4.29537
rclavicle 2.09718e-014 -1.19271e-015
rhumerus -45.6777 -40.9921 -60.7358
rradius 17.2779
rwrist 27.3764
rhand -16.6725 -35.7149
rfingers 7.12502
rthumb 9.55137 -65.4784
lclavicle 2.09718e-014 -1.19271e-015
lhumerus -29.671 6.68877 87.8863
lradius 20.1893
lwrist -23.511
lhand -24.3113 -22.6944
lfingers 7.12502
lthumb 2.17671 7.27428
rfemur -11.4851 6.15954 18.0419
rtibia 9.04535
rfoot -15.6559 1.02416
rtoes -26.714
lfemur -9.91868 -9.87427 -20.9693
ltibia 9.01363
lfoot -20.6856 3.7139
ltoes -62.4296
417
root 8.09653 23.1795 -13.3349 -169.686 1.71553 178.842
lowerback -7.67123 1.02847 -6.73964
upperback 1.47072 1.95929 1.32357
thorax 5.59027 0.721506 5.42932
lowerneck 1.69708 0.0584416 -6.91626
upperneck 10.8989 -1.53331 10.622
head 3.03929 -0.965384 4.33593
rclavicle -6.5102e-015 1.5704e-014
rhumerus -45.3416 -40.8081 -61.1684
rradius 17.2015
rwrist 26.9737
rhand -17.1046 -35.9126
rfingers 7.12502
rthumb 9.13439 -65.6948
lclavicle -6.5102e-015 1.5704e-014
lhumerus -29.4646 6.5675 88.0534
lradius 20.13
lwrist -23.4443
lhand -23.9775 -22.0932
lfingers 7.12502
lthumb 2.49913 7.87193
rfemur -11.6721 6.47469 17.9052
rtibia 9.10042
rfoot -15.6182 0.730383
rtoes -26.2553
lfemur -10.2317 -9.92051 -20.9372
ltibia 9.2868
lfoot -20.653 3.6804
ltoes -62.3305
418
root 8.09096 23.1669 -13.4151 -169.65 1.23233 178.664
lowerback -8.66558 0.838496 -6.63097
upperback 1.54972 1.77395 1.22132
thorax 6.27377 0.605093 5.27401
lowerneck 1.81508 0.0777057 -6.942
upperneck 10.4091 -1.43008 10.5988
head 2.86608 -0.908448 4.33243
rclavicle -1.16289e-014 7.95139e-016
rhumerus -45.4087 -40.5027 -61.4685
rradius 17.3805
rwrist 26.5901
rhand -17.2876 -36.0558
rfingers 7.12502
rthumb 8.95783 -65.8456
lclavicle -1.16289e-014 7.95139e-016
lhumerus -29.4518 6.35229 88.201
lradius 20.164
lwrist -23.1243
lhand -23.6516 -21.7797
lfingers 7.12502
lthumb 2.81384 8.18148
rfemur -10.8456 4.80621 17.8418
rtibia 8.41678
rfoot -15.6957 1.97376
rtoes -26.0669
lfemur -9.61626 -9.95946 -21.5448
ltibia 8.88179
lfoot -20.6783 3.14443
ltoes -62.4278
419
root 8.10685 23.1669 -13.4127 -169.45 1.49762 179.126
lowerback -8.71188 1.02165 -6.25809
upperback 1.3697 1.97207 1.30021
thorax 6.08803 0.727491 5.16929
lowerneck 1.72947 0.0860917 -6.912
upperneck 9.96104 -1.33503 10.6083
head 2.73987 -0.844872 4.32918
rclavicle -5.96354e-015 1.59028e-015
rhumerus -45.5055 -40.4133 -61.6969
rradius 17.6078
rwrist 26.5326
rhand -17.0901 -36.469
rfingers 7.12502
rthumb 9.14836 -66.2506
lclavicle -5.96354e-015 1.59028e-015
lhumerus -29.3488 6.49714 88.2124
lradius 19.9847
lwrist -23.3945
lhand -23.5284 -22.0768
lfingers 7.12502
lthumb 2.93276 7.88282
rfemur -11.3742 5.37084 18.4265
rtibia 8.89415
rfoot -15.8759 1.75564
rtoes -26.3552
lfemur -9.94253 -9.72994 -20.8335
ltibia 9.04229
lfoot -20.7763 3.35385
ltoes -62.4595
420
root 8.11912 23.1694 -13.4082 -169.514 1.47151 179.293
lowerback -8.42572 1.10688 -6.07837
upperback 1.28441 2.04689 1.28338
thorax 5.83002 0.783467 5.04574
lowerneck 1.40183 0.116357 -6.83913
upperneck 9.62163 -1.21904 10.7115
head 2.68384 -0.760503 4.34819
rclavicle 9.88954e-015 -4.17448e-015
rhumerus -45.3902 -40.5254 -61.9419
rradius 17.6537
rwrist 26.6583
rhand -16.4733 -36.6347
rfingers 7.12502
rthumb 9.74354 -66.3893
lclavicle 9.88954e-015 -4.17448e-015
lhumerus -29.2452 6.42148 88.2296
lradius 19.6707
lwrist -23.8421
lhand -24.1595 -22.7985
lfingers 7.12502
lthumb 2.32331 7.16858
rfemur -11.443 5.73476 18.6589
rtibia 9.08116
rfoot -15.9239 1.39674
rtoes -26.2685
lfemur -10.0328 -9.79476 -20.4847
ltibia 9.22046
lfoot -20.7173 3.41107
ltoes -62.3598
421
root 8.13166 23.1751 -13.3984 -169.459 1.54465 179.673
lowerback -8.19212 1.2167 -5.67405
upperback 1.13413 2.13257 1.32517
thorax 5.53773 0.853769 4.8582
lowerneck 1.37687 0.178943 -6.7263
upperneck 9.2305 -1.0811 10.7772
head 2.5601 -0.679892 4.34948
rclavicle 1.15792e-014 4.17448e-015
rhumerus -45.3373 -40.8254 -61.9256
rradius 17.4815
rwrist 26.9721
rhand -16.2387 -36.4832
rfingers 7.12502
rthumb 9.96986 -66.2271
lclavicle 1.15792e-014 4.17448e-015
lhumerus -29.4997 5.79334 88.4341
lradius 19.7791
lwrist -23.7367
lhand -25.1259 -23.2013
lfingers 7.12502
lthumb 1.39 6.77392
rfemur -11.6875 6.10448 19.1091
rtibia 9.27107
rfoot -15.8432 1.17848
rtoes -25.9117
lfemur -10.2986 -9.83429 -19.8357
ltibia 9.45247
lfoot -20.9215 3.61644
ltoes -62.4656
422
root 8.13165 23.1682 -13.4514 -169.625 1.2246 179.423
lowerback -8.63931 1.13545 -5.73043
upperback 1.20593 2.06307 1.23861
thorax 5.87808 0.804522 4.80932
lowerneck 1.55963 0.215289 -6.73897
upperneck 8.78291 -0.986192 10.8464
head 2.38955 -0.632796 4.37208
rclavicle -9.7653e-015 -3.57812e-015
rhumerus -45.331 -40.9578 -61.8571
rradius 17.2939
rwrist 27.1198
rhand -16.5389 -36.4133
rfingers 7.12502
rthumb 9.68022 -66.1708
lclavicle -9.7653e-015 -3.57812e-015
lhumerus -29.7858 5.33576 88.6796
lradius 19.9344
lwrist -23.7066
lhand -25.6076 -23.2699
lfingers 7.12502
lthumb 0.924732 6.70784
rfemur -10.9177 4.95395 18.9297
rtibia 8.7347
rfoot -15.8484 2.01703
rtoes -25.5488
lfemur -9.69132 -9.88628 -20.3955
ltibia 9.18615
lfoot -21.1598 3.29603
ltoes -62.6724
423
root 8.14479 23.1662 -13.4508 -169.538 1.19255 179.386
lowerback -8.63506 1.07138 -5.87741
upperback 1.11381 1.98703 1.32985
thorax 5.78015 0.767075 4.97737
lowerneck 1.25664 0.341763 -7.17815
upperneck 8.61439 -0.771948 11.1136
head 2.37088 -0.515227 4.53127
rclavicle 1.18774e-014 2.18663e-015
rhumerus -45.0225 -40.8542 -61.9443
rradius 17.1821
rwrist 27.3868
rhand -16.7255 -36.4458
rfingers 7.12502
rthumb 9.50024 -66.2116
lclavicle 1.18774e-014 2.18663e-015
lhumerus -29.6789 5.86155 88.7263
lradius 19.7046
lwrist -24.2417
lhand -25.5158 -23.2359
lfingers 7.12502
lthumb 1.01341 6.74141
rfemur -11.1424 5.32119 18.9395
rtibia 8.97636
rfoot -16.0178 1.61701
rtoes -25.6871
lfemur -9.90063 -9.81367 -20.3257
ltibia 9.36442
lfoot -21.1713 3.17366
ltoes -62.6411
424
root 8.15842 23.1662 -13.4509 -169.507 1.00867 179.358
lowerback -8.57225 0.876954 -6.04016
upperback 1.04513 1.7335 1.45463
thorax 5.69663 0.640045 5.16658
lowerneck 0.867006 0.556247 -7.52763
upperneck 8.49946 -0.427753 11.2833
head 2.36889 -0.329114 4.64817
rclavicle -1.9133e-014 -1.11319e-014
rhumerus -44.6812 -40.6669 -62.0795
rradius 17.1249
rwrist 27.8057
rhand -16.703 -36.6252
rfingers 7.12502
rthumb 9.52196 -66.3901
lclavicle -1.9133e-014 -1.11319e-014
lhumerus -29.4551 6.69701 88.623
lradius 19.3324
lwrist -24.9303
lhand -25.4493 -23.4297
lfingers 7.12502
lthumb 1.07759 6.54731
rfemur -11.2611 5.90388 18.9788
rtibia 9.20225
rfoot -16.1796 0.856217
rtoes -25.8176
lfemur -10.0856 -9.79748 -20.2263
ltibia 9.56892
lfoot -20.9292 2.87708
ltoes -62.3767
425
root 8.1686 23.1685 -13.4558 -169.572 0.903222 179.392
lowerback -8.44003 0.804516 -6.05589
upperback 0.977656 1.62525 1.53511
thorax 5.56192 0.59219 5.24158
lowerneck 0.689579 0.715843 -7.68991
upperneck 8.25079 -0.159592 11.3881
head 2.2989 -0.185472 4.71077
rclavicle 9.14409e-015 -1.98785e-016
rhumerus -44.506 -40.3997 -62.2566
rradius 17.1464
rwrist 27.878
rhand -16.5988 -36.9574
rfingers 7.12502
rthumb 9.62245 -66.7176
lclavicle 9.14409e-015 -1.98785e-016
lhumerus -29.3329 6.88644 88.6975
lradius 19.0868
lwrist -25.2879
lhand -25.7578 -23.9115
lfingers 7.12502
lthumb 0.77965 6.06686
rfemur -11.1857 6.22613 19.0592
rtibia 9.25373
rfoot -16.259 0.447983
rtoes -25.9531
lfemur -10.1412 -9.84079 -20.0913
ltibia 9.76958
lfoot -20.8121 2.76048
ltoes -62.1906
426
root 8.17561 23.1683 -13.4645 -169.614 0.815019 179.397
lowerback -8.34885 0.849791 -5.99873
upperback 0.906389 1.67303 1.54491
thorax 5.42938 0.624781 5.22065
lowerneck 1.33942 0.630694 -7.60064
upperneck 7.69139 -0.253571 11.307
head 2.03683 -0.252526 4.66332
rclavicle 8.29926e-015 7.95139e-015
rhumerus -44.5888 -40.4751 -62.1637
rradius 17.1541
rwrist 27.9015
rhand -16.4422 -37.0856
rfingers 7.12502
rthumb 9.77353 -66.8388
lclavicle 8.29926e-015 7.95139e-015
lhumerus -29.3178 6.5337 88.9495
lradius 19.0592
lwrist -25.1656
lhand -25.8577 -23.9596
lfingers 7.12502
lthumb 0.683214 6.01902
rfemur -11.0617 6.23658 19.1011
rtibia 9.19018
rfoot -16.3395 0.371485
rtoes -26.1108
lfemur -10.1188 -9.88357 -20.0488
ltibia 9.82877
lfoot -20.8579 2.71584
ltoes -62.2315
427
root 8.17716 23.1647 -13.4837 -169.64 0.821137 179.378
lowerback -8.45352 0.904587 -5.90606
upperback 0.883469 1.74462 1.51896
thorax 5.45802 0.663167 5.15221
lowerneck 3.12722 0.152802 -7.02482
upperneck 6.66234 -0.860786 10.48
head 1.50059 -0.612384 4.30191
rclavicle 9.14409e-015 7.55382e-015
rhumerus -44.8019 -41.0038 -61.7112
rradius 16.9643
rwrist 28.4107
rhand -16.2761 -37.0763
rfingers 7.12502
rthumb 9.9338 -66.8219
lclavicle 9.14409e-015 7.55382e-015
lhumerus -29.2569 6.3595 89.1072
lradius 18.9689
lwrist -24.9746
lhand -25.6955 -23.7524
lfingers 7.12502
lthumb 0.839829 6.22564
rfemur -10.9022 6.01991 19.1066
rtibia 9.09587
rfoot -16.3695 0.613355
rtoes -25.9728
lfemur -9.89188 -9.97016 -20.1341
ltibia 9.65408
lfoot -20.9362 2.78763
ltoes -62.2952
428
root 8.17761 23.161 -13.5066 -169.692 0.703029 179.303
lowerback -8.61727 0.838581 -5.90658
upperback 0.914201 1.66716 1.52001
thorax 5.59365 0.618948 5.15038
lowerneck 3.21337 0.0537219 -7.08191
upperneck 6.53352 -0.966605 10.2835
head 1.45916 -0.666731 4.25054
rclavicle 2.20154e-014 -1.19271e-015
rhumerus -44.8253 -41.404 -61.4033
rradius 16.7294
rwrist 28.8889
rhand -16.2903 -37.2455
rfingers 7.12502
rthumb 9.92013 -66.9918
lclavicle 2.20154e-014 -1.19271e-015
lhumerus -29.061 6.6299 89.1251
lradius 18.6545
lwrist -25.1667
lhand -25.6808 -23.735
lfingers 7.12502
lthumb 0.854034 6.24301
rfemur -10.6164 5.56621 19.0598
rtibia 8.9032
rfoot -16.3219 0.943696
rtoes -25.7254
lfemur -9.599 -10.1698 -20.3288
ltibia 9.46771
lfoot -20.9503 2.81649
ltoes -62.2873
429
root 8.17702 23.1579 -13.5365 -169.788 0.552746 179.123
lowerback -8.89866 0.741851 -6.00985
upperback 1.02274 1.57002 1.47672
thorax 5.88033 0.554129 5.16244
lowerneck 2.30901 0.287565 -7.26962
upperneck 6.70423 -0.620917 10.6858
head 1.62597 -0.460587 4.40616
rclavicle -1.39149e-015 -1.78906e-014
rhumerus -44.6401 -41.4297 -61.5296
rradius 16.6451
rwrist 28.8262
rhand -16.3382 -37.5901
rfingers 7.12502
rthumb 9.87387 -67.3386
lclavicle -1.39149e-015 -1.78906e-014
lhumerus -28.8857 6.76217 89.1277
lradius 18.4942
lwrist -25.3169
lhand -25.4774 -23.2518
lfingers 7.12502
lthumb 1.05049 6.72538
rfemur -10.2289 5.05652 18.8971
rtibia 8.68941
rfoot -16.3567 1.28205
rtoes -25.6137
lfemur -9.14311 -10.4097 -20.6974
ltibia 9.12451
lfoot -20.8966 2.85357
ltoes -62.2518
430
root 8.18108 23.1583 -13.5532 -169.837 0.57526 179.022
lowerback -9.0425 0.720672 -6.10418
upperback 1.05077 1.56407 1.43429
thorax 5.99181 0.543609 5.17546
lowerneck 2.32123 0.226369 -7.58761
upperneck 6.56823 -0.717198 11.0618
head 1.59238 -0.511763 4.57427
rclavicle -1.78906e-015 2.18663e-015
rhumerus -44.6135 -41.5129 -61.5451
rradius 16.535
rwrist 28.9284
rhand -16.4099 -37.4565
rfingers 7.12502
rthumb 9.80472 -67.2082
lclavicle -1.78906e-015 2.18663e-015
lhumerus -28.9013 6.70819 89.073
lradius 18.4219
lwrist -25.5806
lhand -25.6842 -23.2425
lfingers 7.12502
lthumb 0.850712 6.7356
rfemur -10.0763 4.93634 18.7983
rtibia 8.63218
rfoot -16.4605 1.41854
rtoes -25.7658
lfemur -8.90101 -10.4875 -20.8561
ltibia 8.93489
lfoot -20.9076 2.95908
ltoes -62.2503
